<svg width="475" height="367" viewBox="0 0 475 367" fill="none" xmlns="http://www.w3.org/2000/svg">
<path d="M354.593 365.189L10.5439 217.036C1.62632 212.96 -2.40065 202.51 1.47106 193.495L59.9446 57.3931C62.0794 52.4249 65.922 48.3882 70.8029 46.0496C82.1172 40.6351 103.892 30.3396 120.087 23.518C137.398 16.2209 160.444 7.01228 172.748 2.1314C178.27 -0.0616012 184.383 0.0257307 189.807 2.44191C238.49 24.1293 402.615 91.5884 464.883 121.359C473.675 125.56 477.391 135.972 473.403 144.851L378.56 356.165C374.456 365.306 363.704 369.352 354.593 365.189Z" fill="url(#paint0_linear_252_346)"/>
<path d="M59.5856 58.2082C64.9808 47.8933 77.4789 43.2938 88.376 47.9127L123.629 62.8659C132.741 66.7279 143.259 62.5359 147.218 53.4728L163.831 15.4058C168.391 4.94542 179.948 -0.3236 190.642 2.71361C190.389 2.60687 190.137 2.50013 189.885 2.39339C184.422 0.0548381 178.27 -0.0519008 172.748 2.1411C160.444 7.02198 137.398 16.2306 120.087 23.5277C102.698 30.8539 81.7194 40.7903 70.7544 46.0593C65.9026 48.3979 62.0891 52.4152 59.964 57.364L59.5953 58.2179L59.5856 58.2082Z" fill="url(#paint1_linear_252_346)"/>
<path d="M107.275 121.194V220.421H80.5153V121.194H107.275ZM93.7065 70.0829C98.4805 70.0829 102.375 71.5806 105.39 74.5762C108.531 77.4469 110.101 81.1289 110.101 85.6222C110.101 90.1154 108.531 93.8599 105.39 96.8554C102.375 99.7261 98.4805 101.161 93.7065 101.161C88.9325 101.161 85.038 99.7261 82.0228 96.8554C79.0077 93.8599 77.5001 90.1154 77.5001 85.6222C77.5001 81.1289 79.0077 77.4469 82.0228 74.5762C85.038 71.5806 88.9325 70.0829 93.7065 70.0829Z" fill="white"/>
<path d="M189.48 118.198C198.274 118.198 205.121 120.882 210.021 126.249C214.92 131.491 217.37 138.793 217.37 148.154V220.421H190.611V152.647C190.611 147.28 189.669 143.536 187.784 141.414C186.025 139.167 183.324 138.044 179.681 138.044C175.912 138.044 172.457 139.23 169.316 141.601C166.301 143.848 163.349 147.28 160.459 151.898V220.421H133.7V121.194H156.879L158.952 133.738C163.098 128.62 167.62 124.751 172.52 122.13C177.545 119.509 183.199 118.198 189.48 118.198Z" fill="white"/>
<path d="M324.642 121.194L292.606 220.421H260.759L228.157 121.194H257.178L276.965 199.639L297.129 121.194H324.642Z" fill="white"/>
<path d="M378.156 118.198C393.107 118.198 404.79 122.879 413.208 132.24C421.625 141.476 425.833 154.332 425.833 170.807C425.833 181.292 423.886 190.528 419.992 198.516C416.223 206.379 410.695 212.495 403.408 216.864C396.247 221.232 387.767 223.416 377.968 223.416C363.018 223.416 351.271 218.798 342.729 209.562C334.311 200.201 330.103 187.283 330.103 170.807C330.103 160.323 331.987 151.149 335.756 143.286C339.651 135.298 345.178 129.12 352.339 124.751C359.626 120.383 368.232 118.198 378.156 118.198ZM378.156 138.044C371.372 138.044 366.284 140.727 362.892 146.094C359.626 151.336 357.993 159.574 357.993 170.807C357.993 182.041 359.626 190.341 362.892 195.708C366.284 200.95 371.31 203.571 377.968 203.571C384.626 203.571 389.589 200.95 392.855 195.708C396.247 190.341 397.943 182.041 397.943 170.807C397.943 159.574 396.31 151.336 393.044 146.094C389.777 140.727 384.815 138.044 378.156 138.044Z" fill="white"/>
<path d="M243.813 252.757V259.79H220.862V252.757H243.813ZM227.007 242.91H236.816V281.26C236.816 282.445 236.977 283.358 237.298 283.999C237.618 284.641 238.1 285.073 238.741 285.295C239.383 285.517 240.148 285.628 241.036 285.628C241.678 285.628 242.27 285.591 242.813 285.517C243.356 285.443 243.813 285.369 244.183 285.295L244.22 292.624C243.405 292.896 242.48 293.118 241.444 293.291C240.432 293.464 239.284 293.55 238.001 293.55C235.805 293.55 233.88 293.18 232.226 292.439C230.573 291.674 229.29 290.453 228.377 288.775C227.463 287.072 227.007 284.826 227.007 282.038V242.91Z" fill="white"/>
<path d="M248.763 273.19V272.413C248.763 269.476 249.182 266.774 250.021 264.306C250.86 261.814 252.082 259.655 253.686 257.828C255.29 256.002 257.252 254.583 259.572 253.571C261.891 252.535 264.532 252.017 267.493 252.017C270.504 252.017 273.169 252.535 275.489 253.571C277.833 254.583 279.808 256.002 281.412 257.828C283.016 259.655 284.237 261.814 285.076 264.306C285.915 266.774 286.335 269.476 286.335 272.413V273.19C286.335 276.102 285.915 278.805 285.076 281.297C284.237 283.765 283.016 285.924 281.412 287.775C279.808 289.601 277.846 291.02 275.526 292.032C273.206 293.044 270.553 293.55 267.567 293.55C264.606 293.55 261.953 293.044 259.609 292.032C257.264 291.02 255.29 289.601 253.686 287.775C252.082 285.924 250.86 283.765 250.021 281.297C249.182 278.805 248.763 276.102 248.763 273.19ZM258.535 272.413V273.19C258.535 274.943 258.708 276.584 259.053 278.114C259.399 279.644 259.929 280.989 260.645 282.149C261.361 283.308 262.286 284.222 263.421 284.888C264.581 285.53 265.963 285.85 267.567 285.85C269.147 285.85 270.504 285.53 271.639 284.888C272.774 284.222 273.7 283.308 274.415 282.149C275.156 280.989 275.699 279.644 276.044 278.114C276.39 276.584 276.562 274.943 276.562 273.19V272.413C276.562 270.686 276.39 269.069 276.044 267.564C275.699 266.034 275.156 264.689 274.415 263.529C273.7 262.344 272.762 261.419 271.602 260.753C270.467 260.062 269.097 259.716 267.493 259.716C265.914 259.716 264.557 260.062 263.421 260.753C262.286 261.419 261.361 262.344 260.645 263.529C259.929 264.689 259.399 266.034 259.053 267.564C258.708 269.069 258.535 270.686 258.535 272.413Z" fill="white"/>
<path d="M292.84 273.19V272.413C292.84 269.476 293.259 266.774 294.098 264.306C294.937 261.814 296.159 259.655 297.763 257.828C299.367 256.002 301.329 254.583 303.649 253.571C305.968 252.535 308.609 252.017 311.57 252.017C314.581 252.017 317.246 252.535 319.566 253.571C321.91 254.583 323.885 256.002 325.489 257.828C327.093 259.655 328.314 261.814 329.153 264.306C329.993 266.774 330.412 269.476 330.412 272.413V273.19C330.412 276.102 329.993 278.805 329.153 281.297C328.314 283.765 327.093 285.924 325.489 287.775C323.885 289.601 321.923 291.02 319.603 292.032C317.283 293.044 314.63 293.55 311.644 293.55C308.683 293.55 306.03 293.044 303.686 292.032C301.341 291.02 299.367 289.601 297.763 287.775C296.159 285.924 294.937 283.765 294.098 281.297C293.259 278.805 292.84 276.102 292.84 273.19ZM302.612 272.413V273.19C302.612 274.943 302.785 276.584 303.13 278.114C303.476 279.644 304.006 280.989 304.722 282.149C305.438 283.308 306.363 284.222 307.498 284.888C308.658 285.53 310.04 285.85 311.644 285.85C313.224 285.85 314.581 285.53 315.716 284.888C316.851 284.222 317.777 283.308 318.493 282.149C319.233 280.989 319.776 279.644 320.121 278.114C320.467 276.584 320.64 274.943 320.64 273.19V272.413C320.64 270.686 320.467 269.069 320.121 267.564C319.776 266.034 319.233 264.689 318.493 263.529C317.777 262.344 316.839 261.419 315.679 260.753C314.544 260.062 313.174 259.716 311.57 259.716C309.991 259.716 308.634 260.062 307.498 260.753C306.363 261.419 305.438 262.344 304.722 263.529C304.006 264.689 303.476 266.034 303.13 267.564C302.785 269.069 302.612 270.686 302.612 272.413Z" fill="white"/>
<path d="M349.021 235.951V292.81H339.212V235.951H349.021Z" fill="white"/>
<path d="M381.512 281.852C381.512 281.013 381.29 280.261 380.846 279.594C380.401 278.928 379.562 278.324 378.329 277.781C377.119 277.213 375.342 276.682 372.998 276.189C370.925 275.745 369.013 275.189 367.26 274.523C365.508 273.857 364.003 273.055 362.744 272.117C361.486 271.155 360.499 270.032 359.783 268.748C359.092 267.44 358.746 265.935 358.746 264.232C358.746 262.579 359.104 261.024 359.82 259.568C360.536 258.087 361.572 256.792 362.929 255.681C364.287 254.546 365.94 253.658 367.89 253.016C369.839 252.35 372.036 252.017 374.479 252.017C377.884 252.017 380.809 252.572 383.252 253.682C385.72 254.793 387.607 256.323 388.915 258.273C390.223 260.197 390.877 262.369 390.877 264.788H381.105C381.105 263.726 380.858 262.764 380.364 261.9C379.896 261.037 379.168 260.346 378.18 259.827C377.193 259.284 375.947 259.013 374.442 259.013C373.084 259.013 371.937 259.235 370.999 259.679C370.086 260.123 369.395 260.703 368.926 261.419C368.457 262.135 368.223 262.924 368.223 263.788C368.223 264.43 368.346 265.01 368.593 265.528C368.864 266.021 369.296 266.478 369.889 266.898C370.481 267.317 371.283 267.7 372.295 268.045C373.331 268.391 374.602 268.724 376.107 269.045C379.094 269.637 381.697 270.427 383.918 271.414C386.164 272.376 387.916 273.659 389.175 275.263C390.433 276.868 391.062 278.916 391.062 281.408C391.062 283.185 390.68 284.814 389.915 286.295C389.15 287.751 388.039 289.021 386.583 290.107C385.127 291.193 383.388 292.045 381.364 292.661C379.34 293.254 377.058 293.55 374.516 293.55C370.839 293.55 367.729 292.896 365.187 291.588C362.646 290.255 360.721 288.577 359.413 286.554C358.105 284.505 357.451 282.383 357.451 280.187H366.816C366.89 281.741 367.31 282.988 368.075 283.925C368.84 284.863 369.802 285.542 370.962 285.961C372.147 286.356 373.393 286.554 374.701 286.554C376.182 286.554 377.428 286.356 378.44 285.961C379.451 285.542 380.216 284.987 380.735 284.296C381.253 283.58 381.512 282.766 381.512 281.852Z" fill="white"/>
<defs>
<linearGradient id="paint0_linear_252_346" x1="237.5" y1="4.47966" x2="237.5" y2="304.785" gradientUnits="userSpaceOnUse">
<stop stop-color="#5B5B5B"/>
<stop offset="1" stop-color="#1E1E1E"/>
</linearGradient>
<linearGradient id="paint1_linear_252_346" x1="124.201" y1="28.2533" x2="136.127" y2="57.1699" gradientUnits="userSpaceOnUse">
<stop stop-color="#FFC25A"/>
<stop offset="0.23" stop-color="#FFDDA4"/>
<stop offset="0.26" stop-color="#FFDDA4"/>
<stop offset="1" stop-color="#FFA100"/>
</linearGradient>
</defs>
</svg>
